<svg xmlns="http://www.w3.org/2000/svg" viewBox="0 0 44 44">
  <defs>
    <style>
      .cls-1 {
        fill: #fff;
      }
    </style>
  </defs>
  <path id="cancel" class="cls-1" d="M22,0A22,22,0,1,0,44,22,21.937,21.937,0,0,0,22,0Zm3.2,22.4,7.5,7.5a.967.967,0,0,1,0,1.4l-1.4,1.4a1.08,1.08,0,0,1-.7.3.908.908,0,0,1-.7-.3l-7.5-7.5a.483.483,0,0,0-.7,0l-7.5,7.5a1.08,1.08,0,0,1-.7.3.908.908,0,0,1-.7-.3l-1.4-1.4a.967.967,0,0,1,0-1.4l7.5-7.5a.483.483,0,0,0,0-.7l-7.5-7.5a.967.967,0,0,1,0-1.4l1.4-1.4a.967.967,0,0,1,1.4,0l7.5,7.5a.483.483,0,0,0,.7,0l7.5-7.5a1.08,1.08,0,0,1,.7-.3.908.908,0,0,1,.7.3l1.4,1.4a.967.967,0,0,1,0,1.4l-7.5,7.5C25,21.8,25,22.2,25.2,22.4Z"/>
</svg>
