<svg xmlns="http://www.w3.org/2000/svg" viewBox="0 0 41.035 51.268">
  <defs>
    <style>
      .cls-1 {
        fill: #751dac;
      }
    </style>
  </defs>
  <g id="cart" transform="translate(-48.8)">
    <path id="Path_594" data-name="Path 594" class="cls-1" d="M89.825,44.317,86.889,11.26a1.413,1.413,0,0,0-1.4-1.29H79.446a10.129,10.129,0,0,0-20.256,0H53.151a1.406,1.406,0,0,0-1.4,1.29L48.81,44.317c0,.042-.01.084-.01.126,0,3.764,3.449,6.825,7.7,6.825H82.14c4.246,0,7.7-3.061,7.7-6.825A.511.511,0,0,0,89.825,44.317ZM69.318,2.831a7.3,7.3,0,0,1,7.3,7.14H62.021A7.3,7.3,0,0,1,69.318,2.831ZM82.14,48.437H56.5c-2.663,0-4.823-1.761-4.865-3.932l2.81-31.694h4.739v4.3a1.415,1.415,0,0,0,2.831,0v-4.3h14.6v4.3a1.415,1.415,0,0,0,2.831,0v-4.3h4.739L87,44.506C86.963,46.676,84.792,48.437,82.14,48.437Z"/>
  </g>
</svg>
