<svg xmlns="http://www.w3.org/2000/svg" viewBox="0 0 14.248 10.92">
  <defs>
    <style>
      .cls-1 {
        fill: #751DAC;
      }
    </style>
  </defs>
  <g id="correct-symbol" transform="translate(0 -51.678)">
    <path id="Path_12" data-name="Path 12" class="cls-1" d="M13.99,53.185l-1.25-1.25a.888.888,0,0,0-1.25,0L5.46,57.974l-2.7-2.712a.851.851,0,0,0-.625-.257.851.851,0,0,0-.625.257l-1.25,1.25a.888.888,0,0,0,0,1.25l3.327,3.327,1.25,1.25a.888.888,0,0,0,1.25,0l1.25-1.25,6.655-6.655a.888.888,0,0,0,0-1.25Z"/>
  </g>
</svg>
