<svg xmlns="http://www.w3.org/2000/svg" viewBox="0 0 19.506 15.326">
  <defs>
    <style>
      .cls-1 {
        fill: #ffc05b;
      }
    </style>
  </defs>
  <g id="envelope" transform="translate(0 -54.82)">
    <g id="Group_152" data-name="Group 152" transform="translate(0 54.82)">
      <path id="Path_555" data-name="Path 555" class="cls-1" d="M1.872,59.544q.37.261,2.231,1.551t2.852,1.986q.109.076.462.332t.588.414q.234.158.566.354a3.284,3.284,0,0,0,.626.294,1.724,1.724,0,0,0,.544.1h.022a1.726,1.726,0,0,0,.544-.1,3.287,3.287,0,0,0,.626-.294q.332-.2.566-.354t.588-.414q.354-.256.463-.332l5.094-3.538A5.171,5.171,0,0,0,18.972,58.2a2.874,2.874,0,0,0,.533-1.643,1.756,1.756,0,0,0-1.742-1.742H1.742a1.554,1.554,0,0,0-1.29.566A2.2,2.2,0,0,0,0,56.8a2.543,2.543,0,0,0,.6,1.486A5.4,5.4,0,0,0,1.872,59.544Z" transform="translate(0 -54.82)"/>
      <path id="Path_556" data-name="Path 556" class="cls-1" d="M18.417,185.384q-3.57,2.416-5.42,3.755-.62.457-1.007.713a6.214,6.214,0,0,1-1.029.522,3.132,3.132,0,0,1-1.2.267H9.742a3.133,3.133,0,0,1-1.2-.267,6.217,6.217,0,0,1-1.029-.522q-.386-.256-1.007-.713-1.47-1.078-5.41-3.755a5.766,5.766,0,0,1-1.1-.947v8.642a1.677,1.677,0,0,0,.512,1.23,1.677,1.677,0,0,0,1.23.512H17.764a1.747,1.747,0,0,0,1.742-1.742v-8.642A6,6,0,0,1,18.417,185.384Z" transform="translate(0 -179.495)"/>
    </g>
  </g>
</svg>
