<svg id="envelope" xmlns="http://www.w3.org/2000/svg" viewBox="0 0 17.815 13.998">
  <defs>
    <style>
      .cls-1 {
        fill: #751dac;
      }
    </style>
  </defs>
  <g id="Group_152" data-name="Group 152">
    <path id="Path_555" data-name="Path 555" class="cls-1" d="M1.71,59.135q.338.239,2.038,1.417t2.6,1.814q.1.07.422.3t.537.378q.214.144.517.323a3,3,0,0,0,.572.268,1.575,1.575,0,0,0,.5.089h.02a1.576,1.576,0,0,0,.5-.089,3,3,0,0,0,.572-.268q.3-.179.517-.323t.537-.378q.323-.234.423-.3l4.653-3.231a4.723,4.723,0,0,0,1.213-1.223,2.625,2.625,0,0,0,.487-1.5,1.6,1.6,0,0,0-1.591-1.591H1.591a1.42,1.42,0,0,0-1.178.517A2.007,2.007,0,0,0,0,56.629a2.322,2.322,0,0,0,.547,1.357A4.935,4.935,0,0,0,1.71,59.135Z" transform="translate(0 -54.82)"/>
    <path id="Path_556" data-name="Path 556" class="cls-1" d="M16.821,185.3q-3.26,2.207-4.951,3.43-.567.417-.92.651a5.676,5.676,0,0,1-.939.477,2.861,2.861,0,0,1-1.093.244H8.9A2.862,2.862,0,0,1,7.8,189.86a5.679,5.679,0,0,1-.939-.477q-.353-.234-.919-.651Q4.6,187.748,1,185.3a5.266,5.266,0,0,1-1-.865v7.893a1.531,1.531,0,0,0,.467,1.123,1.531,1.531,0,0,0,1.123.467H16.224a1.6,1.6,0,0,0,1.591-1.591v-7.893A5.481,5.481,0,0,1,16.821,185.3Z" transform="translate(0 -179.924)"/>
  </g>
</svg>
