<svg id="instagram_4_" data-name="instagram (4)" xmlns="http://www.w3.org/2000/svg" viewBox="0 0 24.967 24.967">
  <defs>
    <style>
      .cls-1 {
        fill: #fff;
      }
    </style>
  </defs>
  <g id="Group_152" data-name="Group 152">
    <g id="Group_151" data-name="Group 151">
      <path id="Path_445" data-name="Path 445" class="cls-1" d="M17.165,0H7.8A7.8,7.8,0,0,0,0,7.8v9.363a7.8,7.8,0,0,0,7.8,7.8h9.363a7.8,7.8,0,0,0,7.8-7.8V7.8A7.8,7.8,0,0,0,17.165,0Zm5.462,17.165a5.468,5.468,0,0,1-5.462,5.462H7.8a5.468,5.468,0,0,1-5.462-5.462V7.8A5.468,5.468,0,0,1,7.8,2.341h9.363A5.468,5.468,0,0,1,22.627,7.8Z"/>
    </g>
  </g>
  <g id="Group_154" data-name="Group 154" transform="translate(6.242 6.242)">
    <g id="Group_153" data-name="Group 153">
      <path id="Path_446" data-name="Path 446" class="cls-1" d="M134.242,128a6.242,6.242,0,1,0,6.242,6.242A6.242,6.242,0,0,0,134.242,128Zm0,10.143a3.9,3.9,0,1,1,3.9-3.9A3.907,3.907,0,0,1,134.242,138.143Z" transform="translate(-128 -128)"/>
    </g>
  </g>
  <g id="Group_156" data-name="Group 156" transform="translate(18.362 4.942)">
    <g id="Group_155" data-name="Group 155">
      <circle id="Ellipse_28" data-name="Ellipse 28" class="cls-1" cx="0.832" cy="0.832" r="0.832"/>
    </g>
  </g>
</svg>
