<svg xmlns="http://www.w3.org/2000/svg" viewBox="0 0 268.276 62.297">
  <defs>
    <style>
      .cls-1 {
        fill: #ec5569;
      }

      .cls-2 {
        fill: #e63950;
      }

      .cls-3 {
        fill: #fff5f5;
      }

      .cls-4 {
        fill: #dce6eb;
      }
    </style>
  </defs>
  <g id="Group_732" data-name="Group 732" transform="translate(-322 -8116)">
    <g id="love" transform="translate(316.668 8116)">
      <path id="Path_597" data-name="Path 597" class="cls-1" d="M54.863,0H16.8A11.469,11.469,0,0,0,5.332,11.469V36.433A11.469,11.469,0,0,0,16.8,47.9h5.462a.47.47,0,0,1,.471.471V60.687a1.607,1.607,0,0,0,2.778,1.1L38.433,48.05a.47.47,0,0,1,.343-.148H54.863A11.469,11.469,0,0,0,66.332,36.433V11.469A11.469,11.469,0,0,0,54.863,0Z"/>
      <path id="Path_598" data-name="Path 598" class="cls-2" d="M27.559,54.472a.477.477,0,0,0-.456-.5H21.815c-6.132,0-11.1-5.407-11.1-12.077V15.61a13.087,13.087,0,0,1,.409-3.257,11.465,11.465,0,0,0-5.789,9.966V47.283A11.469,11.469,0,0,0,16.8,58.752h5.462a.471.471,0,0,1,.471.471V71.537a1.607,1.607,0,0,0,2.778,1.1l2.047-2.176V54.472Z" transform="translate(0 -10.85)"/>
      <path id="Path_599" data-name="Path 599" class="cls-1" d="M160.1,106.561h0a7.456,7.456,0,0,0-10.545,0l-1.645,1.645a1,1,0,0,1-1.42,0l-1.619-1.619a7.456,7.456,0,0,0-10.545,0h0a7.456,7.456,0,0,0,0,10.545L146.489,129.3a1,1,0,0,0,1.42,0L160.1,117.105A7.456,7.456,0,0,0,160.1,106.561Z" transform="translate(-111.379 -91.677)"/>
      <path id="Path_600" data-name="Path 600" class="cls-3" d="M160.1,106.561h0a7.456,7.456,0,0,0-10.545,0l-1.645,1.645a1,1,0,0,1-1.42,0l-1.619-1.619a7.456,7.456,0,0,0-10.545,0h0a7.456,7.456,0,0,0,0,10.545L146.489,129.3a1,1,0,0,0,1.42,0L160.1,117.105A7.456,7.456,0,0,0,160.1,106.561Z" transform="translate(-111.379 -91.677)"/>
      <path id="Path_601" data-name="Path 601" class="cls-4" d="M138.226,117.334a7.456,7.456,0,0,1,0-10.545h0a7.418,7.418,0,0,1,3.322-1.923,7.451,7.451,0,0,0-7.222,1.923h0a7.456,7.456,0,0,0,0,10.545L146.49,129.5a1,1,0,0,0,1.42,0l1.24-1.24Z" transform="translate(-111.38 -91.879)"/>
    </g>
    <path id="Path_602" data-name="Path 602" class="cls-3" d="M15.987-13.2v-.2c0-4.9-4.011-6.177-7.678-6.177a39.352,39.352,0,0,0-5.192.32c-1.034.172-1.427.443-1.427,1.624V-1.491a.476.476,0,0,0,.517.443H6.144a.494.494,0,0,0,.492-.492V-7.077C7.3-7.053,7.842-7,8.383-7,11.927-7,15.987-8.357,15.987-13.2Zm-4.971,0c0,1.378-.91,2.042-2.633,2.042-.148,0-1.624,0-1.747-.025V-15.37c.148,0,1.575-.025,1.747-.025,1.649,0,2.633.566,2.633,1.993ZM30.653-7.5V-8.923c0-4.331-2.338-6.669-6.447-6.669s-6.472,2.338-6.472,6.669V-7.5c0,4.331,2.362,6.669,6.472,6.669S30.653-3.165,30.653-7.5Zm-4.7,0c0,1.969-.615,2.731-1.747,2.731S22.434-5.552,22.434-7.5V-8.923c0-1.969.64-2.707,1.772-2.707s1.747.763,1.747,2.707Zm22.639-7.333c0-.369-.2-.541-.615-.541H45.123a1.135,1.135,0,0,0-1.058.591L41.038-9.907c-.074.123-.172.221-.246.221s-.148-.1-.221-.221L37.543-14.78a1.135,1.135,0,0,0-1.058-.591h-2.9c-.418,0-.591.172-.591.541V-1.59a.563.563,0,0,0,.541.541h3.445a.521.521,0,0,0,.492-.541V-7.643c0-.32.221-.221.3-.123l1.723,2.633a.667.667,0,0,0,.591.369h1.427a.7.7,0,0,0,.615-.369l1.7-2.633c.074-.1.3-.2.3.123V-1.59a.563.563,0,0,0,.541.541H48.1a.521.521,0,0,0,.492-.541ZM62.865-1.541v-8.711c0-4.036-2.608-5.315-6.177-5.315a19.815,19.815,0,0,0-4.5.591.646.646,0,0,0-.492.591V-12a.459.459,0,0,0,.468.492h.074c1.157-.123,2.707-.172,4.282-.172.837,0,1.624.221,1.624,1.427v.714H57.082c-4.109,0-6.349,1.058-6.349,4.011v.3c0,3.322,2.264,4.4,4.208,4.4a6.016,6.016,0,0,0,3.519-1.23v.517a.494.494,0,0,0,.492.492h3.42A.494.494,0,0,0,62.865-1.541ZM58.288-4.592a4.3,4.3,0,0,1-1.673.369c-.689,0-1.255-.246-1.255-1.083v-.246c0-1.034.492-1.427,1.723-1.427h1.206ZM78.269-14.829a.521.521,0,0,0-.492-.541H74.086a.563.563,0,0,0-.541.541V-10.3H70.173v-4.528a.521.521,0,0,0-.492-.541H65.99a.563.563,0,0,0-.541.541V-1.59a.563.563,0,0,0,.541.541h3.691a.521.521,0,0,0,.492-.541V-6.438h3.371V-1.59a.563.563,0,0,0,.541.541h3.691a.521.521,0,0,0,.492-.541Zm14.346,3.568a.563.563,0,0,0,.541-.541v-3.076a.521.521,0,0,0-.541-.492H80.656a.521.521,0,0,0-.541.492V-11.8a.563.563,0,0,0,.541.541h3.617V-1.59a.563.563,0,0,0,.541.541h3.691A.521.521,0,0,0,89-1.59v-9.671Zm1.157,9.5a.742.742,0,0,0,.763.714h2.781a.989.989,0,0,0,.886-.517l3.593-5.586c.074-.148.148-.172.2-.172.074,0,.123.049.123.172v5.709a.4.4,0,0,0,.418.394h3.593a.417.417,0,0,0,.443-.394V-14.656a.758.758,0,0,0-.763-.714h-2.756a.961.961,0,0,0-.837.566L98.5-9.021c-.074.148-.123.172-.2.172-.049,0-.1-.025-.1-.172v-5.955a.41.41,0,0,0-.418-.394H94.166a.389.389,0,0,0-.394.394Zm14.888-13.091v4.183c0,2.559.787,5.291,4.356,5.291a6.657,6.657,0,0,0,3.765-1.058v4.9a.494.494,0,0,0,.492.492h3.691a.494.494,0,0,0,.492-.492V-14.853a.537.537,0,0,0-.517-.517h-3.667a.515.515,0,0,0-.492.517v5.192a5.376,5.376,0,0,1-2.289.615c-.812,0-1.107-.418-1.107-1.772v-4.036a.515.515,0,0,0-.492-.517h-3.716A.537.537,0,0,0,108.659-14.853Zm27.979,7.432V-8.9c0-3.962-1.993-6.693-6.3-6.693-4.036,0-6.546,2.362-6.546,6.693v1.624c0,4.7,3.076,6.447,6.4,6.447a16.743,16.743,0,0,0,5.34-.763.59.59,0,0,0,.492-.689V-4.494c0-.3-.172-.418-.443-.418h-.1c-.935.1-3.371.2-4.675.2-1.8,0-2.338-.812-2.338-2.116V-6.88h7.653A.511.511,0,0,0,136.638-7.422Zm-4.528-2.067h-3.642v-.074c0-1.476.64-2.362,1.821-2.362,1.23,0,1.821.886,1.821,2.362Zm16.241,7.751V-4.494a.467.467,0,0,0-.468-.468h-.049c-.837.074-1.624.148-2.83.148-1.058,0-1.673-.64-1.673-2.461V-9.12c0-1.821.615-2.485,1.673-2.485a27.636,27.636,0,0,1,2.83.172h.049a.467.467,0,0,0,.468-.468v-2.781c0-.32-.172-.443-.492-.517a14.452,14.452,0,0,0-3.371-.394c-3.765,0-5.881,2.461-5.881,6.472v1.846c0,4.036,2.116,6.447,5.881,6.447a14.2,14.2,0,0,0,3.371-.394C148.179-1.295,148.352-1.418,148.352-1.737Zm15.774.345a.331.331,0,0,0-.049-.2L159.72-8.48l4.257-6.373a.4.4,0,0,0,.074-.221c0-.172-.123-.3-.344-.3H159.45a.726.726,0,0,0-.714.443l-3.371,5.635v-5.586a.494.494,0,0,0-.492-.492h-3.691a.538.538,0,0,0-.541.492V-1.59a.582.582,0,0,0,.541.541h3.691a.538.538,0,0,0,.492-.541V-7.2L158.49-1.59a.884.884,0,0,0,.763.541h4.552A.331.331,0,0,0,164.125-1.393Zm13.017-.148v-8.711c0-4.036-2.608-5.315-6.177-5.315a19.815,19.815,0,0,0-4.5.591.646.646,0,0,0-.492.591V-12a.459.459,0,0,0,.468.492h.074c1.157-.123,2.707-.172,4.282-.172.837,0,1.624.221,1.624,1.427v.714H171.36c-4.109,0-6.349,1.058-6.349,4.011v.3c0,3.322,2.264,4.4,4.208,4.4a6.016,6.016,0,0,0,3.519-1.23v.517a.494.494,0,0,0,.492.492h3.42A.494.494,0,0,0,177.143-1.541Zm-4.577-3.051a4.3,4.3,0,0,1-1.673.369c-.689,0-1.255-.246-1.255-1.083v-.246c0-1.034.492-1.427,1.723-1.427h1.206Zm13.879-1.55H187.6v4.7a.389.389,0,0,0,.394.394h3.839a.417.417,0,0,0,.443-.394v-12.6c0-.91-.32-1.132-1.206-1.255a36.839,36.839,0,0,0-5.192-.271c-4.011,0-6.669,1.058-6.669,4.577v.3a4.221,4.221,0,0,0,2.485,4.036l-2.854,4.946c-.2.32-.049.664.271.664H183c.566,0,.64-.2.787-.443Zm-2.584-4.749c0-.91.369-1.378,2.018-1.378.566,0,1.575.049,1.723.049v3.051c-.123.025-1.157.025-1.7.025-1.673,0-2.042-.517-2.042-1.427ZM13.846,23.018,6.439,14.159l7.407-8.367c.172-.2.148-.517-.246-.517H11.828a.587.587,0,0,0-.492.221L4.249,13.692V5.743a.467.467,0,0,0-.468-.468h-1.3a.467.467,0,0,0-.468.468V23.067a.469.469,0,0,0,.443.492H3.806a.468.468,0,0,0,.443-.492V14.873l6.939,8.44a.664.664,0,0,0,.541.246h1.919C14.018,23.559,14.018,23.239,13.846,23.018ZM26.3,17.727v-1.87c0-3.617-1.87-6-5.488-6s-5.463,2.387-5.463,6v1.87c0,3.617,1.846,6,5.463,6S26.3,21.345,26.3,17.727Zm-2.165,0c0,2.535-1.034,4.109-3.322,4.109-2.313,0-3.3-1.6-3.3-4.109v-1.87c0-2.535,1.009-4.109,3.3-4.109,2.313,0,3.322,1.6,3.322,4.109ZM39.61,17.7V15.931c0-3.691-1.7-6.078-5.364-6.078a20.354,20.354,0,0,0-4.528.566c-.443.1-.517.246-.517.566v16.93a.447.447,0,0,0,.443.468H30.9a.467.467,0,0,0,.468-.468V23.461a18.184,18.184,0,0,0,2.879.271C37.839,23.731,39.61,21.566,39.61,17.7Zm-2.165,0c0,2.633-.787,4.208-3.2,4.208a19.218,19.218,0,0,1-2.879-.246V11.92a18.211,18.211,0,0,1,2.879-.246c2.436,0,3.2,1.673,3.2,4.257ZM53.366,12.83c0-2.805-1.969-2.805-3.1-2.805H45.615c-1.132,0-3.1,0-3.1,2.805V23.067a.494.494,0,0,0,.492.492h1.181a.494.494,0,0,0,.492-.492V12.83c0-.738.2-.935.935-.935h4.651c.738,0,.935.2.935.935V23.067a.494.494,0,0,0,.492.492h1.181a.494.494,0,0,0,.492-.492Zm13.854,4.9v-1.87c0-3.617-1.87-6-5.488-6s-5.463,2.387-5.463,6v1.87c0,3.617,1.846,6,5.463,6S67.22,21.345,67.22,17.727Zm-2.165,0c0,2.535-1.034,4.109-3.322,4.109-2.313,0-3.3-1.6-3.3-4.109v-1.87c0-2.535,1.009-4.109,3.3-4.109,2.313,0,3.322,1.6,3.322,4.109ZM80.533,17.7V15.931c0-3.691-1.7-6.078-5.364-6.078a20.354,20.354,0,0,0-4.528.566c-.443.1-.517.246-.517.566v16.93a.447.447,0,0,0,.443.468h1.255a.467.467,0,0,0,.468-.468V23.461a18.184,18.184,0,0,0,2.879.271C78.761,23.731,80.533,21.566,80.533,17.7Zm-2.165,0c0,2.633-.787,4.208-3.2,4.208a19.218,19.218,0,0,1-2.879-.246V11.92a18.211,18.211,0,0,1,2.879-.246c2.436,0,3.2,1.673,3.2,4.257Zm14.494,5.364V14.479c0-2.9-1.378-4.626-4.8-4.626a21.194,21.194,0,0,0-3.814.32c-.345.049-.517.2-.517.468V11.5c0,.369.3.418.566.394a35.82,35.82,0,0,1,3.765-.2c1.919,0,2.633.714,2.633,2.781v.984H88.875c-4.38,0-5.93,1.329-5.93,3.986v.3c0,3.076,1.919,3.986,4.011,3.986a7.494,7.494,0,0,0,3.79-1.206v.541a.494.494,0,0,0,.492.492h1.132A.494.494,0,0,0,92.861,23.067ZM90.7,20.975a6.772,6.772,0,0,1-3.322.984c-1.427,0-2.264-.468-2.264-2.239v-.3c0-1.747.787-2.412,3.765-2.412H90.7Zm14.2-.221c0,.738-.2.935-.935.935H99.309c-.738,0-.935-.2-.935-.935V10.517a.494.494,0,0,0-.492-.492H96.7a.494.494,0,0,0-.492.492V20.754c0,2.805,1.969,2.805,3.1,2.805h6.964v2.19a.494.494,0,0,0,.492.492h1.157a.494.494,0,0,0,.492-.492V22.157a.473.473,0,0,0-.492-.468h-.96a3.563,3.563,0,0,0,.1-.91V10.517a.494.494,0,0,0-.492-.492h-1.181a.494.494,0,0,0-.492.492Zm5.684,2.092a.714.714,0,0,0,.714.714h1.526c.394,0,.591-.049.787-.394l5.561-9.7c.049-.074.1-.074.1.025v9.6a.447.447,0,0,0,.443.468h1.28a.454.454,0,0,0,.443-.492V10.714c0-.541-.148-.689-.591-.689h-1.427c-.517,0-.738.025-1.009.492l-5.586,9.646c-.025.049-.074.049-.074-.025V10.493a.42.42,0,0,0-.443-.468h-1.28a.409.409,0,0,0-.443.468Zm23.894.221V10.517c0-.369-.221-.468-.615-.517a32.608,32.608,0,0,0-3.322-.148c-3.3,0-5.98.96-5.98,4.011v.123a3.8,3.8,0,0,0,3.224,3.839l-3.716,5.143a.367.367,0,0,0,.32.591h1.353a.649.649,0,0,0,.64-.3l3.667-5.192h.492c.664,0,.738-.025,1.772-.049v5.045a.494.494,0,0,0,.492.492h1.181A.494.494,0,0,0,134.473,23.067Zm-2.165-6.792c-.886.025-1.3.049-1.772.049-2.584,0-3.863-.517-3.863-2.338v-.123c0-1.673,1.255-2.239,3.863-2.239.615,0,1.23,0,1.772.049Z" transform="translate(398 8137)"/>
  </g>
</svg>
