<svg xmlns="http://www.w3.org/2000/svg" viewBox="0 0 22.671 28.075">
  <defs>
    <style>
      .cls-1 {
        fill: #fff;
        stroke: #fff;
      }
    </style>
  </defs>
  <g id="shopping-bag" transform="translate(0.5 0.5)">
    <path id="Path_594" data-name="Path 594" class="cls-1" d="M70.465,23.4,68.915,5.946a.746.746,0,0,0-.742-.681H64.984a5.349,5.349,0,0,0-10.7,0H51.1a.742.742,0,0,0-.742.681L48.806,23.4c0,.022-.006.044-.006.066a3.858,3.858,0,0,0,4.064,3.6H66.407a3.858,3.858,0,0,0,4.064-3.6A.269.269,0,0,0,70.465,23.4ZM59.635,1.495a3.858,3.858,0,0,1,3.854,3.771H55.782A3.858,3.858,0,0,1,59.635,1.495ZM66.407,25.58H52.864A2.385,2.385,0,0,1,50.295,23.5L51.779,6.766h2.5v2.27a.747.747,0,0,0,1.495,0V6.766h7.713v2.27a.747.747,0,0,0,1.495,0V6.766h2.5L68.976,23.5A2.389,2.389,0,0,1,66.407,25.58Z" transform="translate(-48.8 0)"/>
  </g>
</svg>
