<svg xmlns="http://www.w3.org/2000/svg" viewBox="0 0 25.843 25.843">
  <defs>
    <style>
      .cls-1 {
        fill: #fff;
      }
    </style>
  </defs>
  <g id="telephone2" transform="translate(0 0)">
    <g id="Group_790" data-name="Group 790">
      <path id="Path_603" data-name="Path 603" class="cls-1" d="M19.653,60.752a1.811,1.811,0,0,0-2.737,0c-.64.635-1.28,1.269-1.909,1.914a.377.377,0,0,1-.527.1c-.414-.226-.855-.409-1.253-.656a19.853,19.853,0,0,1-4.786-4.356A11.339,11.339,0,0,1,6.725,55a.394.394,0,0,1,.1-.506c.64-.618,1.264-1.253,1.893-1.888a1.818,1.818,0,0,0-.005-2.8c-.5-.506-1-1-1.5-1.506-.516-.516-1.027-1.038-1.549-1.549a1.822,1.822,0,0,0-2.737.005c-.645.635-1.264,1.285-1.92,1.909a3.116,3.116,0,0,0-.979,2.1,8.909,8.909,0,0,0,.688,3.834,23.3,23.3,0,0,0,4.135,6.889,25.591,25.591,0,0,0,8.475,6.631,12.257,12.257,0,0,0,4.695,1.366,3.441,3.441,0,0,0,2.952-1.124c.549-.613,1.167-1.172,1.748-1.759a1.83,1.83,0,0,0,.011-2.786Q21.2,62.282,19.653,60.752Z" transform="translate(-0.006 -43.656)"/>
      <path id="Path_604" data-name="Path 604" class="cls-1" d="M243.683,103.647l1.984-.339A8.907,8.907,0,0,0,238.134,96l-.28,2a6.884,6.884,0,0,1,5.829,5.652Z" transform="translate(-225.063 -90.837)"/>
      <path id="Path_605" data-name="Path 605" class="cls-1" d="M251.423,4.184A14.632,14.632,0,0,0,243.034,0l-.28,2a12.768,12.768,0,0,1,10.8,10.47l1.984-.339A14.739,14.739,0,0,0,251.423,4.184Z" transform="translate(-229.7)"/>
    </g>
  </g>
</svg>
