<svg xmlns="http://www.w3.org/2000/svg" viewBox="0 0 18.539 18.539">
  <defs>
    <style>
      .cls-1 {
        fill: #ffc05b;
      }
    </style>
  </defs>
  <g id="Group_151" data-name="Group 151" transform="translate(0)">
    <path id="Path_552" data-name="Path 552" class="cls-1" d="M14.1,56.621a1.3,1.3,0,0,0-1.964,0c-.459.455-.918.91-1.37,1.373a.271.271,0,0,1-.378.069c-.3-.162-.613-.293-.9-.471a14.242,14.242,0,0,1-3.433-3.125A8.134,8.134,0,0,1,4.826,52.5a.282.282,0,0,1,.069-.363c.459-.444.907-.9,1.358-1.354a1.3,1.3,0,0,0,0-2.01c-.359-.363-.718-.718-1.076-1.08s-.737-.745-1.111-1.111a1.307,1.307,0,0,0-1.964,0c-.463.455-.907.922-1.377,1.37a2.236,2.236,0,0,0-.7,1.508,6.391,6.391,0,0,0,.494,2.751A16.714,16.714,0,0,0,3.48,57.154a18.358,18.358,0,0,0,6.08,4.757,8.793,8.793,0,0,0,3.368.98,2.468,2.468,0,0,0,2.118-.806c.393-.44.837-.841,1.254-1.261a1.312,1.312,0,0,0,.008-2Q15.207,57.719,14.1,56.621Z" transform="translate(-0.006 -44.358)"/>
    <path id="Path_553" data-name="Path 553" class="cls-1" d="M242.036,101.486l1.424-.243a6.39,6.39,0,0,0-5.4-5.243l-.2,1.431a4.938,4.938,0,0,1,4.182,4.055Z" transform="translate(-228.678 -92.297)"/>
    <path id="Path_554" data-name="Path 554" class="cls-1" d="M248.973,3a10.5,10.5,0,0,0-6.018-3l-.2,1.431a9.159,9.159,0,0,1,7.75,7.511l1.424-.243A10.573,10.573,0,0,0,248.973,3Z" transform="translate(-233.389)"/>
  </g>
</svg>
