<svg xmlns="http://www.w3.org/2000/svg" viewBox="0 0 26.922 15.36">
  <defs>
    <style>
      .cls-1 {
        fill: #fff;
      }
    </style>
  </defs>
  <g id="vk-social-network-logo_1_" data-name="vk-social-network-logo (1)" transform="translate(0 -117.748)">
    <path id="Path_63" data-name="Path 63" class="cls-1" d="M26.78,131.62a1.844,1.844,0,0,0-.091-.175,13.952,13.952,0,0,0-2.677-3.1l-.028-.028-.014-.014-.014-.014h-.014q-.9-.855-1.135-1.15a1.079,1.079,0,0,1-.2-1.136,10.585,10.585,0,0,1,1.262-1.836q.575-.743.911-1.191,2.425-3.224,2.1-4.121l-.084-.14a.82.82,0,0,0-.434-.231,2.207,2.207,0,0,0-.9-.035l-4.037.028a.524.524,0,0,0-.28.007l-.182.042-.07.035-.056.042a.623.623,0,0,0-.154.147.962.962,0,0,0-.14.245,22.888,22.888,0,0,1-1.5,3.154q-.519.869-.953,1.507a7.251,7.251,0,0,1-.729.939,5.084,5.084,0,0,1-.533.484q-.238.182-.364.154c-.084-.019-.163-.037-.239-.056a.932.932,0,0,1-.315-.343,1.538,1.538,0,0,1-.161-.547q-.042-.33-.049-.568t.007-.673q.015-.435.014-.589,0-.533.021-1.156t.035-.988q.014-.364.014-.771a3.239,3.239,0,0,0-.049-.638,2.182,2.182,0,0,0-.147-.449.755.755,0,0,0-.287-.336,1.62,1.62,0,0,0-.47-.189,9.327,9.327,0,0,0-1.893-.182,9.2,9.2,0,0,0-3.35.337,1.888,1.888,0,0,0-.533.42q-.252.308-.07.336a1.718,1.718,0,0,1,1.191.6l.084.168a2.681,2.681,0,0,1,.2.645,6.506,6.506,0,0,1,.126,1.023,10.912,10.912,0,0,1,0,1.752q-.07.729-.133,1.135a2.273,2.273,0,0,1-.189.659,2.779,2.779,0,0,1-.168.308.241.241,0,0,1-.07.07,1.05,1.05,0,0,1-.379.07.888.888,0,0,1-.477-.2,3.363,3.363,0,0,1-.582-.54,7.214,7.214,0,0,1-.68-.96q-.378-.617-.785-1.458l-.224-.407q-.21-.392-.575-1.142t-.645-1.451a.924.924,0,0,0-.336-.448l-.07-.042a.96.96,0,0,0-.224-.119,1.488,1.488,0,0,0-.322-.091L.9,118.451a.976.976,0,0,0-.8.266l-.056.084a.454.454,0,0,0-.042.224,1.116,1.116,0,0,0,.084.378q.841,1.977,1.829,3.813t1.717,2.957q.729,1.122,1.486,2.117t1,1.276q.245.281.386.421l.35.336a8.314,8.314,0,0,0,.988.806,16.853,16.853,0,0,0,1.444.925,7.834,7.834,0,0,0,1.843.743,6.374,6.374,0,0,0,2.047.232h1.612a1.116,1.116,0,0,0,.743-.308l.056-.07a.929.929,0,0,0,.105-.259,1.424,1.424,0,0,0,.049-.385,4.619,4.619,0,0,1,.091-1.086,2.856,2.856,0,0,1,.239-.729,1.792,1.792,0,0,1,.3-.413,1.218,1.218,0,0,1,.239-.2.917.917,0,0,1,.112-.049.89.89,0,0,1,.792.217,4.653,4.653,0,0,1,.855.813q.4.484.96,1.086a6.6,6.6,0,0,0,.981.9l.28.168a3.412,3.412,0,0,0,.729.308,1.571,1.571,0,0,0,.785.07l3.588-.056a1.626,1.626,0,0,0,.827-.175.7.7,0,0,0,.35-.385,1.085,1.085,0,0,0,.007-.477A1.759,1.759,0,0,0,26.78,131.62Z" transform="translate(0 0)"/>
  </g>
</svg>
